<?xml version="1.0" standalone="no"?>
<!DOCTYPE svg PUBLIC "-//W3C//DTD SVG 20010904//EN"
 "http://www.w3.org/TR/2001/REC-SVG-20010904/DTD/svg10.dtd">
<svg version="1.0" xmlns="http://www.w3.org/2000/svg"
 width="391.000000pt" height="391.000000pt" viewBox="0 0 391.000000 391.000000"
 preserveAspectRatio="xMidYMid meet">
<metadata>
Created by potrace 1.14, written by Peter Selinger 2001-2017
</metadata>
<g transform="translate(0.000000,391.000000) scale(0.100000,-0.100000)"
fill="#000000" stroke="none">
<path d="M10 3095 c0 -20 5 -23 43 -23 133 -2 191 -30 219 -105 17 -44 18
-111 15 -995 -2 -935 -2 -948 -23 -987 -31 -60 -84 -83 -196 -84 -51 -1 -58
-3 -58 -21 0 -11 6 -21 13 -21 6 -1 488 -2 1069 -3 756 -1 1059 2 1062 10 8
20 -8 32 -49 37 -128 18 -206 101 -238 252 -13 58 -15 199 -16 840 l-1 770 28
-31 c15 -16 63 -72 107 -123 44 -52 85 -99 90 -105 12 -13 217 -251 323 -375
41 -47 84 -97 95 -111 12 -14 49 -57 82 -95 33 -39 62 -72 65 -75 3 -3 30 -34
60 -70 30 -36 57 -67 60 -70 3 -3 75 -86 160 -185 85 -99 164 -191 176 -205
25 -29 148 -172 184 -214 14 -16 43 -50 65 -75 22 -26 60 -71 85 -100 102
-120 127 -144 144 -138 15 6 16 85 17 949 0 519 2 967 5 997 13 188 119 322
264 333 37 3 51 13 44 33 -4 8 -36 11 -112 8 -108 -3 -370 -3 -517 0 -73 2
-80 0 -80 -17 0 -14 8 -20 30 -23 100 -12 177 -64 218 -148 50 -102 51 -113
51 -843 l1 -683 -30 33 c-16 18 -51 58 -76 88 -26 30 -79 93 -119 140 -40 47
-82 96 -94 110 -11 14 -55 66 -96 115 -41 50 -77 92 -80 95 -3 3 -80 93 -170
200 -91 107 -174 206 -186 220 -40 47 -219 257 -345 406 -69 82 -145 176 -170
209 -81 110 -35 99 -404 99 -318 1 -347 -2 -327 -30 4 -5 18 -10 32 -12 60 -8
78 -13 135 -41 61 -31 165 -120 182 -156 5 -11 8 -56 7 -100 -1 -44 -4 -386
-8 -760 -3 -374 -8 -696 -11 -715 -3 -19 -7 -55 -10 -80 -9 -69 -35 -151 -58
-184 -31 -43 -108 -74 -207 -81 -141 -11 -631 -8 -678 4 -85 23 -126 81 -139
200 -9 74 -9 1732 0 1771 21 101 85 143 212 141 47 0 70 11 62 32 -4 11 -25
14 -109 11 -137 -4 -567 -5 -695 -1 -101 4 -103 3 -103 -18z"/>
</g>
</svg>
